<?xml version="1.0" encoding="utf-8"?>
<!-- Generator: Adobe Illustrator 21.1.0, SVG Export Plug-In . SVG Version: 6.00 Build 0)  -->
<svg version="1.1" id="Ebene_1" xmlns="http://www.w3.org/2000/svg" xmlns:xlink="http://www.w3.org/1999/xlink" x="0px" y="0px"
	 width="1000px" height="1000px" viewBox="0 0 1000 1000" enable-background="new 0 0 1000 1000" xml:space="preserve">
<g>
	<path fill="#868686" d="M500,25c261.9,0,475,213.1,475,475S761.9,975,500,975S25,761.9,25,500S238.1,25,500,25z M500,935.6
		c240.2,0,435.6-195.4,435.6-435.6S740.2,64.4,500,64.4S64.4,259.8,64.4,500S259.8,935.6,500,935.6z"/>
	<path fill="#868686" d="M808,289.4L544.5,552.9v267.3c0,2-1.1,3.9-2.9,4.9c-0.8,0.4-1.7,0.6-2.6,0.6c-1.1,0-2.1-0.3-3.1-0.9
		l-93.6-62.4c-1.5-1-2.4-2.7-2.4-4.6V552.9L176.5,289.4c-1.6-1.6-2-3.9-1.2-6c0.8-2.1,2.9-3.4,5.1-3.4h623.8c2.2,0,4.2,1.3,5.1,3.4
		C810.1,285.4,809.6,287.8,808,289.4z"/>
</g>
</svg>
