<?xml version="1.0" encoding="utf-8"?>
<!-- Generator: Adobe Illustrator 21.1.0, SVG Export Plug-In . SVG Version: 6.00 Build 0)  -->
<svg version="1.1" id="Ebene_1" xmlns="http://www.w3.org/2000/svg" xmlns:xlink="http://www.w3.org/1999/xlink" x="0px" y="0px"
	 width="1000px" height="1000px" viewBox="0 0 1000 1000" enable-background="new 0 0 1000 1000" xml:space="preserve">
<path fill="#868686" d="M500,25C238.1,25,25,238.1,25,500c0,261.9,213.1,475,475,475s475-213.1,475-475C975,238.1,761.9,25,500,25z
	 M833.4,302.4L555.2,580.6v282.2c0,2.1-1.2,4.1-3.1,5.1c-0.9,0.5-1.8,0.7-2.7,0.7c-1.1,0-2.2-0.3-3.2-1l-98.8-65.9
	c-1.6-1.1-2.6-2.9-2.6-4.8V580.6L166.6,302.4c-1.7-1.7-2.2-4.2-1.3-6.3s3-3.6,5.4-3.6h658.6c2.3,0,4.5,1.4,5.4,3.6
	C835.6,298.2,835.1,300.7,833.4,302.4z"/>
</svg>
