<?xml version="1.0" encoding="utf-8"?>
<!-- Generator: Adobe Illustrator 21.1.0, SVG Export Plug-In . SVG Version: 6.00 Build 0)  -->
<svg version="1.1" id="Ebene_1" xmlns="http://www.w3.org/2000/svg" xmlns:xlink="http://www.w3.org/1999/xlink" x="0px" y="0px"
	 width="1000px" height="1000px" viewBox="0 0 1000 1000" style="enable-background:new 0 0 1000 1000;" xml:space="preserve">
<style type="text/css">
	.st0{fill:#89C535;}
</style>
<g>
	<g>
		<path class="st0" d="M500,25C238.1,25,25,238.1,25,500s213.1,475,475,475s475-213.1,475-475S761.9,25,500,25z M758.2,340.7
			l-301.6,349c0,0-36.8,65.8-85.5,0L241.8,540.1c-11.8-13.6-11.8-35.8,0-49.5c11.8-13.7,30.9-13.7,42.8,0l129.3,76.6l301.6-276
			c11.8-13.7,30.9-13.7,42.8,0C770,304.9,770,327.1,758.2,340.7z"/>
	</g>
</g>
</svg>
