<?xml version="1.0" encoding="utf-8"?>
<!-- Generator: Adobe Illustrator 21.1.0, SVG Export Plug-In . SVG Version: 6.00 Build 0)  -->
<svg version="1.1" id="Ebene_1" xmlns="http://www.w3.org/2000/svg" xmlns:xlink="http://www.w3.org/1999/xlink" x="0px" y="0px"
	 width="1000px" height="1000px" viewBox="0 0 1000 1000" style="enable-background:new 0 0 1000 1000;" xml:space="preserve">
<style type="text/css">
	.st0{fill:#868686;}
</style>
<g>
	<polygon class="st0" points="623.5,325.5 325.4,623.6 376.3,674.6 674.6,376.5 	"/>
	<polygon class="st0" points="275.1,724.9 368.8,724.9 275.1,631.2 	"/>
	<polygon class="st0" points="606.2,308.2 581.7,283.7 283.6,581.8 308,606.3 	"/>
	<polygon class="st0" points="393.7,691.9 418.2,716.5 716.3,418.3 691.9,393.8 	"/>
	<path class="st0" d="M500,25C237.7,25,25,237.7,25,500c0,262.3,212.7,475,475,475c262.3,0,475-212.7,475-475
		C975,237.7,762.3,25,500,25z M759.8,432.8l-0.4,0.4L432.6,759.8l-0.7,0.7l-0.4,0.4l-0.4,0.3l-0.4,0.4l-0.5,0.2l-0.4,0.4l-0.4,0.2
		l-0.4,0.3l-0.4,0.3l-0.4,0.2l-0.9,0.5l-0.5,0.2l-0.4,0.2l-0.4,0.1l-0.5,0.2l-0.5,0.1l-0.5,0.1l-0.9,0.3l-0.5,0.1l-0.4,0.1l-0.5,0.1
		l-0.5,0.1l-0.4,0.1l-0.5,0.1h-0.5l-1,0.1H254.6c-11.2,0-20.3-9.1-20.3-20.4V580.2v-0.4v-0.5l0.1-0.1v-0.5v-0.3l0.1-0.2v-0.3v-0.2
		l0.2-0.5V577v-0.3l0.2-0.5l0.1-0.1v-0.3l0.1-0.2v-0.3l0.1-0.1l0.1-0.3l0.1-0.2l0.1-0.2l0.2-0.7l0.1-0.2l0.1-0.2l0.1-0.3l0.1-0.1
		l0.1-0.2l0.1-0.2l0.1-0.2l0.1-0.2l0.3-0.4l0.1-0.2l0.1-0.3l0.1-0.1l0.1-0.2l0.1-0.1l0.4-0.4l0.1-0.2l0.1-0.2l0.1-0.2l0.1-0.2
		l0.2-0.2l0.2-0.1l0.1-0.4l0.5-0.4l0.3-0.3v-0.1l0.4-0.3l327.1-327.2c7.9-8,20.8-8,28.9,0l163.6,163.6
		C767.7,411.8,767.7,424.8,759.8,432.8z"/>
</g>
</svg>
