<?xml version="1.0" encoding="utf-8"?>
<!-- Generator: Adobe Illustrator 21.1.0, SVG Export Plug-In . SVG Version: 6.00 Build 0)  -->
<svg version="1.1" id="Ebene_1" xmlns="http://www.w3.org/2000/svg" xmlns:xlink="http://www.w3.org/1999/xlink" x="0px" y="0px"
	 width="1000px" height="1000px" viewBox="0 0 1000 1000" style="enable-background:new 0 0 1000 1000;" xml:space="preserve">
<style type="text/css">
	.st0{fill-rule:evenodd;clip-rule:evenodd;fill:#ff7100;}
</style>
<path class="st0" d="M760,695.4c17.8,17.8,17.8,46.8,0,64.6c-17.8,17.8-46.8,17.8-64.6,0L500,564.6L304.6,760
	c-17.8,17.8-46.8,17.8-64.6,0c-17.8-17.8-17.8-46.8,0-64.6L435.4,500L240,304.6c-17.8-17.8-17.8-46.8,0-64.6s46.8-17.8,64.6,0
	L500,435.4L695.4,240c17.8-17.8,46.8-17.8,64.6,0c17.8,17.8,17.8,46.8,0,64.6L564.6,500L760,695.4z"/>
</svg>
