<?xml version="1.0" encoding="utf-8"?>
<!-- Generator: Adobe Illustrator 21.1.0, SVG Export Plug-In . SVG Version: 6.00 Build 0)  -->
<svg version="1.1" id="Ebene_1" xmlns="http://www.w3.org/2000/svg" xmlns:xlink="http://www.w3.org/1999/xlink" x="0px" y="0px"
	 width="1000px" height="1000px" viewBox="0 0 1000 1000" style="enable-background:new 0 0 1000 1000;" xml:space="preserve">
<style type="text/css">
	.st0{fill:#ff7100;}
</style>
<g>
	<path class="st0" d="M500,142c32.3,0,62.3,0.9,89.7,2.6c-0.2-18.4-15.4-29.1-34.1-29.1H431.1c-18.8,0-34.1,10.9-34.1,29.4h2.1
		C429.3,143,462.9,142,500,142z"/>
	<path class="st0" d="M780.2,209.3c-26.4-24.6-126.5-45.4-280.2-45.4c-153.8,0-249.6,17.3-280.1,45.4H219v32.7H781v-32.7H780.2z"/>
	<path class="st0" d="M274.7,820.5c2.4,36,32.6,63.9,69.1,63.9h315.1c36.5,0,66.7-28,69.1-63.9l36.7-552.2H238L274.7,820.5z
		 M625,345.3c0.9-13.3,12-23.2,25.8-22.7c6.5,0.4,12.5,3.3,16.9,8.2c4.3,4.8,6.4,11,5.9,17.5l-29.6,471
		c-0.8,12.7-11.5,22.7-24.4,22.7c-8-0.4-13.9-3.3-18.3-8.2c-4.3-4.8-6.5-11.1-6.1-17.5L625,345.3z M476.3,345.5
		c0-13.4,11-24.2,24.4-24.2c13.5,0,24.4,10.8,24.4,24.2v471.7c0,13.4-10.9,24.2-24.4,24.2c-13.5,0-24.4-10.8-24.4-24.2V345.5z
		 M336.1,330.8c4.3-4.9,10.3-7.8,16.9-8.2c12.8,0,25,9.4,25.8,22.7l29.6,471.1c0.4,6.5-1.8,12.7-6.1,17.5
		c-4.3,4.8-10.3,7.7-16.8,8.1c0,0-0.1,0-0.1,0c-14.3,0-24.9-10-25.7-22.7l-29.6-471.1C329.7,341.9,331.8,335.7,336.1,330.8z"/>
</g>
</svg>
