<?xml version="1.0" encoding="utf-8"?>
<!-- Generator: Adobe Illustrator 21.1.0, SVG Export Plug-In . SVG Version: 6.00 Build 0)  -->
<svg version="1.1" id="Ebene_1" xmlns="http://www.w3.org/2000/svg" xmlns:xlink="http://www.w3.org/1999/xlink" x="0px" y="0px"
	 width="1000px" height="1000px" viewBox="0 0 1000 1000" style="enable-background:new 0 0 1000 1000;" xml:space="preserve">
<style type="text/css">
	.st0{fill:#ff7100;}
</style>
<path class="st0" d="M858.3,367.6L631.4,140.7c-11.2-11.1-29.1-11.1-40.1,0L137.7,594.5l-0.5,0.4v0.1l-0.4,0.4l-0.7,0.6l-0.2,0.5
	l-0.2,0.1l-0.3,0.3l-0.2,0.3l-0.2,0.3l-0.1,0.3l-0.2,0.3l-0.5,0.6l-0.2,0.2l-0.2,0.3l-0.2,0.2l-0.1,0.4l-0.2,0.3l-0.4,0.6l-0.1,0.3
	l-0.2,0.3l-0.1,0.3l-0.2,0.3l-0.1,0.2l-0.2,0.4l-0.1,0.3l-0.2,0.3l-0.3,1l-0.2,0.3l-0.1,0.3l-0.2,0.4l-0.1,0.2v0.4l-0.2,0.3v0.4
	l-0.1,0.2l-0.3,0.7v0.4v0.3l-0.3,0.7v0.3v0.4l-0.2,0.3v0.4v0.7l-0.2,0.2v0.7v0.5v229c0,15.7,12.6,28.3,28.2,28.3h228.2l1.4-0.1h0.7
	l0.7-0.1l0.6-0.1l0.7-0.1l0.7-0.2l0.6-0.1l0.7-0.2l1.2-0.4l0.7-0.2l0.7-0.2l0.7-0.3l0.6-0.2l0.5-0.3l0.7-0.3l1.2-0.7l0.6-0.3
	l0.6-0.4l0.6-0.4l0.5-0.3l0.6-0.5l0.7-0.3l0.5-0.5l0.6-0.4l0.5-0.6l1-1l453.3-453l0.5-0.5C869.3,396.7,869.3,378.7,858.3,367.6
	L858.3,367.6z M611.3,201L611.3,201l34,33.9L231.7,648.4l-33.9-33.9L611.3,201L611.3,201z M186.1,812.9L186.1,812.9v-130l129.9,130
	H186.1L186.1,812.9z M255.8,672.5L255.8,672.5l413.5-413.5l70.8,70.7L326.5,743.2L255.8,672.5L255.8,672.5z M384.5,801.3
	L384.5,801.3l-33.9-34l413.5-413.5l33.9,34L384.5,801.3L384.5,801.3z"/>
</svg>
