<?xml version="1.0" encoding="utf-8"?>
<!-- Generator: Adobe Illustrator 21.1.0, SVG Export Plug-In . SVG Version: 6.00 Build 0)  -->
<svg version="1.1" id="Ebene_1" xmlns="http://www.w3.org/2000/svg" xmlns:xlink="http://www.w3.org/1999/xlink" x="0px" y="0px"
	 width="1000px" height="1000px" viewBox="0 0 1000 1000" enable-background="new 0 0 1000 1000" xml:space="preserve">
<path fill="#868686" d="M500,25C238.1,25,25,238.1,25,500c0,261.9,213.1,475,475,475s475-213.1,475-475C975,238.1,761.9,25,500,25z
	 M500,64.4c218.8,0,399.9,162.3,430.5,372.7H798.3C768.7,296.4,644.3,194.9,500,194.9c-144.3,0-268.7,101.4-298.3,242.1H69.5
	C100.1,226.6,281.2,64.4,500,64.4z M688.3,500c0,103.8-84.5,188.3-188.3,188.3c-103.8,0-188.3-84.5-188.3-188.3
	S396.2,311.7,500,311.7C603.8,311.7,688.3,396.2,688.3,500z M500,935.6c-218.8,0-399.9-162.3-430.5-372.7h132.2
	C231.3,703.6,355.7,805.1,500,805.1c144.3,0,268.7-101.4,298.4-242.1h132.2C899.9,773.4,718.8,935.6,500,935.6z"/>
</svg>
