<?xml version="1.0" encoding="utf-8"?>
<!-- Generator: Adobe Illustrator 21.1.0, SVG Export Plug-In . SVG Version: 6.00 Build 0)  -->
<svg version="1.1" id="Ebene_1" xmlns="http://www.w3.org/2000/svg" xmlns:xlink="http://www.w3.org/1999/xlink" x="0px" y="0px"
	 width="1000px" height="1000px" viewBox="0 0 1000 1000" enable-background="new 0 0 1000 1000" xml:space="preserve">
<path fill="#868686" d="M966.8,433.4H815.5c-31.3-148.7-162.9-256-315.5-256c-152.6,0-284.1,107.3-315.5,256H33.2
	c-4.6,0-8.2,3.7-8.2,8.2v116.7c0,4.6,3.7,8.2,8.2,8.2h151.3c31.3,148.8,162.9,256,315.5,256c152.6,0,284.2-107.3,315.5-256h151.3
	c4.6,0,8.2-3.7,8.2-8.2V441.7C975,437.1,971.3,433.4,966.8,433.4z M500,300.9c109.8,0,199.1,89.3,199.1,199.1S609.8,699.1,500,699.1
	c-109.8,0-199.1-89.3-199.1-199.1S390.2,300.9,500,300.9z"/>
</svg>
