<?xml version="1.0" encoding="utf-8"?>
<!-- Generator: Adobe Illustrator 21.1.0, SVG Export Plug-In . SVG Version: 6.00 Build 0)  -->
<svg version="1.1" id="Ebene_1" xmlns="http://www.w3.org/2000/svg" xmlns:xlink="http://www.w3.org/1999/xlink" x="0px" y="0px"
	 width="1000px" height="1000px" viewBox="0 0 1000 1000" enable-background="new 0 0 1000 1000" xml:space="preserve">
<path fill="#868686" d="M975,699.7v266.2c0,5-4.1,9.1-9.1,9.1H699.7c-3.7,0-7-2.2-8.4-5.6c-1.4-3.4-0.6-7.3,2-10l91.4-91.4
	L564.1,647.6c-1.7-1.7-2.7-4-2.7-6.5c0-2.4,1-4.7,2.7-6.5l70.6-70.6c3.4-3.4,9.5-3.4,12.9,0l220.4,220.4l91.4-91.4
	c2.6-2.6,6.5-3.4,10-2C972.8,692.6,975,696,975,699.7z M965.9,25H699.7c-3.7,0-7,2.2-8.4,5.6c-1.4,3.4-0.6,7.3,2,10l91.4,91.3
	l-309,309H34.1c-5,0-9.1,4.1-9.1,9.1v99.8c0,5,4.1,9.1,9.1,9.1h486.5c2.4,0,4.7-1,6.5-2.7l340.9-340.9l91.4,91.4
	c2.6,2.6,6.6,3.4,10,2c3.4-1.4,5.6-4.7,5.6-8.4V34.1C975,29.1,970.9,25,965.9,25z"/>
</svg>
