<?xml version="1.0" encoding="utf-8"?>
<!-- Generator: Adobe Illustrator 21.1.0, SVG Export Plug-In . SVG Version: 6.00 Build 0)  -->
<svg version="1.1" id="Ebene_1" xmlns="http://www.w3.org/2000/svg" xmlns:xlink="http://www.w3.org/1999/xlink" x="0px" y="0px"
	 width="1000px" height="1000px" viewBox="0 0 1000 1000" enable-background="new 0 0 1000 1000" xml:space="preserve">
<path fill="#868686" d="M966.8,91.7H33.2c-3.3,0-6.3,2-7.6,5.1c-1.3,3.1-0.6,6.6,1.8,9l394.3,394.3v306.7c0,2.7,1.4,5.3,3.7,6.9
	l140,93.4c1.4,0.9,3,1.4,4.6,1.4c1.3,0,2.7-0.3,3.9-1c2.7-1.4,4.3-4.2,4.3-7.3v-400l394.4-394.3c2.3-2.4,3.1-5.9,1.8-9
	C973.1,93.7,970.1,91.7,966.8,91.7z"/>
</svg>
