<?xml version="1.0" encoding="utf-8"?>
<!-- Generator: Adobe Illustrator 21.1.0, SVG Export Plug-In . SVG Version: 6.00 Build 0)  -->
<svg version="1.1" id="Ebene_1" xmlns="http://www.w3.org/2000/svg" xmlns:xlink="http://www.w3.org/1999/xlink" x="0px" y="0px"
	 width="1000px" height="1000px" viewBox="0 0 1000 1000" style="enable-background:new 0 0 1000 1000;" xml:space="preserve">
<style type="text/css">
	.st0{fill:#868686;}
</style>
<g>
	<path class="st0" d="M759.8,403.8L596.2,240.3c-8.1-8-21-8-28.9,0L240.3,567.4l-0.4,0.3v0.1l-0.3,0.3l-0.5,0.4l-0.1,0.4l-0.1,0.1
		l-0.2,0.2l-0.1,0.2l-0.1,0.2l-0.1,0.2l-0.1,0.2l-0.4,0.4l-0.1,0.1l-0.1,0.2l-0.1,0.1l-0.1,0.3l-0.1,0.2l-0.3,0.4l-0.1,0.2l-0.1,0.2
		l-0.1,0.2l-0.1,0.2l-0.1,0.1l-0.1,0.3l-0.1,0.2l-0.1,0.2l-0.2,0.7l-0.1,0.2l-0.1,0.2l-0.1,0.3l-0.1,0.1v0.3l-0.1,0.2v0.3l-0.1,0.1
		l-0.2,0.5v0.3v0.2l-0.2,0.5v0.2v0.3l-0.1,0.2v0.3v0.5l-0.1,0.1v0.5v0.4v165.1c0,11.3,9.1,20.4,20.3,20.4h164.5l1-0.1h0.5l0.5-0.1
		l0.4-0.1l0.5-0.1l0.5-0.1l0.4-0.1l0.5-0.1l0.9-0.3l0.5-0.1l0.5-0.1l0.5-0.2l0.4-0.1l0.4-0.2l0.5-0.2l0.9-0.5l0.4-0.2l0.4-0.3
		l0.4-0.3l0.4-0.2l0.4-0.4l0.5-0.2l0.4-0.4l0.4-0.3l0.4-0.4l0.7-0.7l326.8-326.6l0.4-0.4C767.7,424.8,767.7,411.8,759.8,403.8
		L759.8,403.8z M581.7,283.7L581.7,283.7l24.5,24.4L308,606.3l-24.4-24.5L581.7,283.7L581.7,283.7z M275.1,724.9L275.1,724.9v-93.7
		l93.6,93.7H275.1L275.1,724.9z M325.4,623.6L325.4,623.6l298.1-298.1l51.1,51L376.3,674.6L325.4,623.6L325.4,623.6z M418.2,716.5
		L418.2,716.5l-24.4-24.5l298.1-298.1l24.5,24.5L418.2,716.5L418.2,716.5z"/>
	<g>
		<g>
			<g>
				<g>
					<path class="st0" d="M500,975C238.1,975,25,761.9,25,500S238.1,25,500,25s475,213.1,475,475S761.9,975,500,975z M500,64.4
						C259.8,64.4,64.4,259.8,64.4,500S259.8,935.6,500,935.6S935.6,740.2,935.6,500S740.2,64.4,500,64.4z"/>
				</g>
			</g>
		</g>
	</g>
</g>
</svg>
