<?xml version="1.0" encoding="utf-8"?>
<!-- Generator: Adobe Illustrator 21.1.0, SVG Export Plug-In . SVG Version: 6.00 Build 0)  -->
<svg version="1.1" id="Ebene_1" xmlns="http://www.w3.org/2000/svg" xmlns:xlink="http://www.w3.org/1999/xlink" x="0px" y="0px"
	 width="1000px" height="1000px" viewBox="0 0 1000 1000" style="enable-background:new 0 0 1000 1000;" xml:space="preserve">
<style type="text/css">
	.st0{fill:#868686;}
</style>
<g>
	<path class="st0" d="M586.3,746.6c9.3,0,17-7.2,17.6-16.4l21.3-339.6c0.3-4.6-1.2-9.1-4.3-12.6c-3.1-3.5-7.4-5.6-12.2-5.9
		c-9.9-0.4-18,6.7-18.6,16.3l-21.4,339.6c-0.3,4.6,1.3,9.1,4.4,12.6C576.3,744.2,580.6,746.3,586.3,746.6z"/>
	<path class="st0" d="M500.5,746.1c9.7,0,17.6-7.8,17.6-17.4V388.6c0-9.6-7.9-17.4-17.6-17.4s-17.6,7.8-17.6,17.4v340.1
		C482.9,738.3,490.8,746.1,500.5,746.1z"/>
	<path class="st0" d="M417.4,746.6L417.4,746.6c4.7-0.3,9-2.4,12.2-5.9c3.1-3.5,4.7-8,4.4-12.6l-21.3-339.6
		c-0.6-9.6-9.4-16.3-18.6-16.3c-4.7,0.3-9,2.4-12.2,5.9c-3.1,3.5-4.6,8-4.3,12.6l21.3,339.6C399.4,739.4,407,746.6,417.4,746.6z"/>
	<path class="st0" d="M500,25C237.7,25,25,237.7,25,500c0,262.3,212.7,475,475,475c262.3,0,475-212.7,475-475
		C975,237.7,762.3,25,500,25z M450.3,222.8h89.8c13.4,0,24.4,7.7,24.6,21c-19.8-1.2-41.3-1.9-64.7-1.9c-26.7,0-51,0.7-72.8,2.1h-1.5
		C425.7,230.6,436.8,222.8,450.3,222.8z M664.3,731.1c-1.7,25.9-23.5,46.1-49.8,46.1H387.4c-26.3,0-48.1-20.2-49.8-46.1L311.1,333
		h379.6L664.3,731.1z M702.6,313.9H297.4v-23.6h0.6c22-20.3,91.1-32.7,202-32.7c110.8,0,182.9,15,202,32.7h0.6V313.9z"/>
</g>
</svg>
