<?xml version="1.0" encoding="utf-8"?>
<!-- Generator: Adobe Illustrator 21.1.0, SVG Export Plug-In . SVG Version: 6.00 Build 0)  -->
<svg version="1.1" id="Ebene_1" xmlns="http://www.w3.org/2000/svg" xmlns:xlink="http://www.w3.org/1999/xlink" x="0px" y="0px"
	 width="1000px" height="1000px" viewBox="0 0 1000 1000" style="enable-background:new 0 0 1000 1000;" xml:space="preserve">
<style type="text/css">
	.st0{fill-rule:evenodd;clip-rule:evenodd;fill:#868686;}
</style>
<path class="st0" d="M500,25C238.1,25,25,238.1,25,500s213.1,475,475,475s475-213.1,475-475S761.9,25,500,25z M687.5,640.9
	c12.9,12.9,12.9,33.7,0,46.6c-12.9,12.9-33.7,12.9-46.6,0L500,546.6L359.1,687.5c-12.9,12.9-33.7,12.9-46.6,0s-12.9-33.7,0-46.6
	L453.4,500L312.5,359.1c-12.9-12.9-12.9-33.7,0-46.6s33.7-12.9,46.6,0L500,453.4l140.9-140.9c12.9-12.9,33.7-12.9,46.6,0
	c12.9,12.9,12.9,33.7,0,46.6L546.6,500L687.5,640.9z"/>
</svg>
