<?xml version="1.0" encoding="utf-8"?>
<!-- Generator: Adobe Illustrator 21.1.0, SVG Export Plug-In . SVG Version: 6.00 Build 0)  -->
<svg version="1.1" id="Ebene_1" xmlns="http://www.w3.org/2000/svg" xmlns:xlink="http://www.w3.org/1999/xlink" x="0px" y="0px"
	 width="1000px" height="1000px" viewBox="0 0 1000 1000" style="enable-background:new 0 0 1000 1000;" xml:space="preserve">
<style type="text/css">
	.st0{fill-rule:evenodd;clip-rule:evenodd;fill:#868686;}
</style>
<path class="st0" d="M500,25C238.1,25,25,238.1,25,500s213.1,475,475,475s475-213.1,475-475S761.9,25,500,25z M732.2,467.1
	c18.2,0,32.9,14.7,32.9,32.9c0,18.2-14.7,32.9-32.9,32.9l-199.2,0l0,199.2c0,18.2-14.7,32.9-32.9,32.9c-18.2,0-32.9-14.7-32.9-32.9
	l0-199.2H267.8c-18.2,0-32.9-14.7-32.9-32.9c0-18.2,14.7-32.9,32.9-32.9l199.2,0V267.8c0-18.2,14.7-32.9,32.9-32.9
	c18.2,0,32.9,14.7,32.9,32.9v199.2L732.2,467.1z"/>
</svg>
