<?xml version="1.0" encoding="utf-8"?>
<!-- Generator: Adobe Illustrator 21.1.0, SVG Export Plug-In . SVG Version: 6.00 Build 0)  -->
<svg version="1.1" id="Ebene_1" xmlns="http://www.w3.org/2000/svg" xmlns:xlink="http://www.w3.org/1999/xlink" x="0px" y="0px"
	 width="1000px" height="1000px" viewBox="0 0 1000 1000" style="enable-background:new 0 0 1000 1000;" xml:space="preserve">
<style type="text/css">
	.st0{fill:#868686;}
</style>
<g>
	<path class="st0" d="M722.6,646.9l-109-86.3c17.5-28.7,27.8-62.3,27.8-98.3c0-104.4-84.6-189-189-189c-104.4,0-189,84.6-189,189
		c0,104.4,84.6,189,189,189c41,0,78.9-13.2,109.9-35.4l98.6,99.8c17.5,15.7,44.4,14.2,60.1-3.3l5-5.6
		C741.5,689.5,740,662.6,722.6,646.9z M452.4,598.6c-75.3,0-136.3-61-136.3-136.3s61-136.3,136.3-136.3c75.3,0,136.3,61,136.3,136.3
		S527.6,598.6,452.4,598.6z"/>
	<g>
		<g>
			<g>
				<g>
					<path class="st0" d="M500,975C238.1,975,25,761.9,25,500S238.1,25,500,25s475,213.1,475,475S761.9,975,500,975z M500,64.4
						C259.8,64.4,64.4,259.8,64.4,500S259.8,935.6,500,935.6S935.6,740.2,935.6,500S740.2,64.4,500,64.4z"/>
				</g>
			</g>
		</g>
	</g>
</g>
</svg>
