<?xml version="1.0" encoding="utf-8"?>
<!-- Generator: Adobe Illustrator 21.1.0, SVG Export Plug-In . SVG Version: 6.00 Build 0)  -->
<svg version="1.1" id="Ebene_1" xmlns="http://www.w3.org/2000/svg" xmlns:xlink="http://www.w3.org/1999/xlink" x="0px" y="0px"
	 width="1000px" height="1000px" viewBox="0 0 1000 1000" style="enable-background:new 0 0 1000 1000;" xml:space="preserve">
<style type="text/css">
	.st0{fill-rule:evenodd;clip-rule:evenodd;fill:#868686;}
	.st1{fill:#868686;}
</style>
<g>
	<path class="st0" d="M371.1,689.7L241.8,540.1c-11.8-13.7-11.8-35.8,0-49.5c11.8-13.7,30.9-13.7,42.8,0l129.3,76.6l301.6-276
		c11.8-13.7,30.9-13.7,42.8,0c11.8,13.7,11.8,35.8,0,49.5l-301.6,349C456.6,689.7,419.8,755.5,371.1,689.7z"/>
	<g>
		<g>
			<g>
				<g>
					<path class="st1" d="M500,975C238.1,975,25,761.9,25,500S238.1,25,500,25s475,213.1,475,475S761.9,975,500,975z M500,64.4
						C259.8,64.4,64.4,259.8,64.4,500S259.8,935.6,500,935.6S935.6,740.2,935.6,500S740.2,64.4,500,64.4z"/>
				</g>
			</g>
		</g>
	</g>
</g>
</svg>
