<?xml version="1.0" encoding="utf-8"?>
<!-- Generator: Adobe Illustrator 21.1.0, SVG Export Plug-In . SVG Version: 6.00 Build 0)  -->
<svg version="1.1" id="Ebene_1" xmlns="http://www.w3.org/2000/svg" xmlns:xlink="http://www.w3.org/1999/xlink" x="0px" y="0px"
	 width="1000px" height="1000px" viewBox="0 0 1000 1000" style="enable-background:new 0 0 1000 1000;" xml:space="preserve">
<style type="text/css">
	.st0{fill:#868686;}
	.st1{fill-rule:evenodd;clip-rule:evenodd;fill:#868686;}
</style>
<g>
	<g>
		<g>
			<g>
				<g>
					<path class="st0" d="M500,975C238.1,975,25,761.9,25,500S238.1,25,500,25s475,213.1,475,475S761.9,975,500,975z M500,64.4
						C259.8,64.4,64.4,259.8,64.4,500S259.8,935.6,500,935.6S935.6,740.2,935.6,500S740.2,64.4,500,64.4z"/>
				</g>
			</g>
		</g>
	</g>
	<path class="st1" d="M732.2,467.1c18.2,0,32.9,14.7,32.9,32.9c0,18.2-14.7,32.9-32.9,32.9H267.8c-18.2,0-32.9-14.7-32.9-32.9
		c0-18.2,14.7-32.9,32.9-32.9l199.2,0L732.2,467.1z"/>
</g>
</svg>
