<?xml version="1.0" encoding="utf-8"?>
<!-- Generator: Adobe Illustrator 21.1.0, SVG Export Plug-In . SVG Version: 6.00 Build 0)  -->
<svg version="1.1" id="Ebene_1" xmlns="http://www.w3.org/2000/svg" xmlns:xlink="http://www.w3.org/1999/xlink" x="0px" y="0px"
	 width="1000px" height="1000px" viewBox="0 0 1000 1000" enable-background="new 0 0 1000 1000" xml:space="preserve">
<g>
	<path fill="#868686" d="M500,265.2c-129.5,0-234.8,105.3-234.8,234.8S370.5,734.8,500,734.8c129.5,0,234.8-105.3,234.8-234.8
		S629.5,265.2,500,265.2z"/>
	<path fill="#868686" d="M500,880.5c-179.9,0-335.1-126.5-372.1-302H32.1C69.7,803.1,264.9,975,500,975s430.3-171.9,467.9-396.5
		h-95.9C835.1,754,679.9,880.5,500,880.5z"/>
	<path fill="#868686" d="M500,119.5c180,0,335.2,126.5,372.1,302h95.9C930.3,196.9,735.1,25,500,25S69.7,196.9,32.1,421.5h95.9
		C164.8,246,320.1,119.5,500,119.5z"/>
</g>
</svg>
