<?xml version="1.0" encoding="utf-8"?>
<!-- Generator: Adobe Illustrator 21.1.0, SVG Export Plug-In . SVG Version: 6.00 Build 0)  -->
<svg version="1.1" id="Ebene_1" xmlns="http://www.w3.org/2000/svg" xmlns:xlink="http://www.w3.org/1999/xlink" x="0px" y="0px"
	 width="1000px" height="1000px" viewBox="0 0 1000 1000" enable-background="new 0 0 1000 1000" xml:space="preserve">
<path fill="#868686" d="M500,25C238.1,25,25,238.1,25,500s213.1,475,475,475s475-213.1,475-475S761.9,25,500,25z M766.2,822.2
	c0,3.5-2.8,6.3-6.3,6.3H575.8c-2.6,0-4.9-1.5-5.8-3.9c-1-2.4-0.4-5.1,1.4-6.9l63.2-63.2L482,602.1c-1.2-1.2-1.9-2.8-1.9-4.5
	c0-1.7,0.7-3.3,1.9-4.5l48.8-48.8c2.4-2.4,6.6-2.4,8.9,0l152.4,152.5l63.2-63.2c1.8-1.8,4.5-2.4,6.9-1.4c2.4,1,3.9,3.3,3.9,5.8
	V822.2z M766.2,361.9c0,2.6-1.5,4.9-3.9,5.8c-2.3,1-5.1,0.4-6.9-1.4l-63.2-63.2L456.4,539c-1.2,1.2-2.8,1.9-4.5,1.9H115.5
	c-3.5,0-6.3-2.8-6.3-6.3v-69c0-3.5,2.8-6.3,6.3-6.3h305.3l213.7-213.7l-63.2-63.2c-1.8-1.8-2.3-4.5-1.4-6.9c1-2.4,3.3-3.9,5.8-3.9
	h184.1c3.5,0,6.3,2.8,6.3,6.3V361.9z"/>
</svg>
