<?xml version="1.0" encoding="utf-8"?>
<!-- Generator: Adobe Illustrator 21.1.0, SVG Export Plug-In . SVG Version: 6.00 Build 0)  -->
<svg version="1.1" id="Ebene_1" xmlns="http://www.w3.org/2000/svg" xmlns:xlink="http://www.w3.org/1999/xlink" x="0px" y="0px"
	 width="1000px" height="1000px" viewBox="0 0 1000 1000" enable-background="new 0 0 1000 1000" xml:space="preserve">
<g>
	<path fill="#868686" d="M500,25c261.9,0,475,213.1,475,475S761.9,975,500,975S25,761.9,25,500S238.1,25,500,25z M500,935.6
		c240.2,0,435.6-195.4,435.6-435.6S740.2,64.4,500,64.4S64.4,259.8,64.4,500S259.8,935.6,500,935.6z"/>
	<path fill="#868686" d="M758.3,623.1v164.1c0,3.1-2.5,5.6-5.6,5.6H588.5c-2.3,0-4.3-1.4-5.2-3.5c-0.9-2.1-0.4-4.5,1.2-6.1
		l56.3-56.3L504.9,591c-1.1-1.1-1.6-2.5-1.6-4c0-1.5,0.6-2.9,1.6-4l43.5-43.5c2.1-2.1,5.8-2.1,8,0l135.9,135.9l56.3-56.3
		c1.6-1.6,4-2.1,6.1-1.2C756.9,618.8,758.3,620.8,758.3,623.1z M752.6,207.1H588.5c-2.3,0-4.3,1.4-5.2,3.5c-0.9,2.1-0.4,4.5,1.2,6.1
		l56.3,56.3L450.3,463.6H178.2c-3.1,0-5.6,2.5-5.6,5.6v61.6c0,3.1,2.5,5.6,5.6,5.6h300c1.5,0,2.9-0.6,4-1.6l210.2-210.2l56.3,56.3
		c1.6,1.6,4,2.1,6.1,1.2c2.1-0.9,3.5-2.9,3.5-5.2V212.8C758.3,209.7,755.7,207.1,752.6,207.1z"/>
</g>
</svg>
