<?xml version="1.0" encoding="utf-8"?>
<!-- Generator: Adobe Illustrator 21.1.0, SVG Export Plug-In . SVG Version: 6.00 Build 0)  -->
<svg version="1.1" id="Ebene_1" xmlns="http://www.w3.org/2000/svg" xmlns:xlink="http://www.w3.org/1999/xlink" x="0px" y="0px"
	 width="1000px" height="1000px" viewBox="0 0 1000 1000" style="enable-background:new 0 0 1000 1000;" xml:space="preserve">
<style type="text/css">
	.st0{fill:#868686;}
</style>
<g>
	<g>
		<g>
			<g>
				<g>
					<path class="st0" d="M500,975C238.1,975,25,761.9,25,500S238.1,25,500,25s475,213.1,475,475S761.9,975,500,975z M500,64.4
						C259.8,64.4,64.4,259.8,64.4,500S259.8,935.6,500,935.6S935.6,740.2,935.6,500S740.2,64.4,500,64.4z"/>
				</g>
			</g>
		</g>
	</g>
	<g>
		<path class="st0" d="M500,241.9c23.3,0,44.9,0.7,64.7,1.9c-0.1-13.3-11.1-21-24.6-21h-89.8c-13.5,0-24.6,7.8-24.6,21.2h1.5
			C449,242.6,473.3,241.9,500,241.9z"/>
		<path class="st0" d="M702,290.4c-19.1-17.7-91.2-32.7-202-32.7c-110.9,0-180,12.5-202,32.7h-0.6v23.6h405.1v-23.6H702z"/>
		<path class="st0" d="M337.6,731.1c1.7,25.9,23.5,46.1,49.8,46.1h227.1c26.3,0,48.1-20.2,49.8-46.1L690.8,333H311.1L337.6,731.1z
			 M590.1,388.5c0.6-9.6,8.7-16.7,18.6-16.3c4.7,0.3,9,2.4,12.2,5.9c3.1,3.5,4.6,8,4.3,12.6l-21.3,339.6
			c-0.6,9.2-8.3,16.4-17.6,16.4c-5.8-0.3-10-2.4-13.2-5.9c-3.1-3.5-4.7-8-4.4-12.6L590.1,388.5z M482.9,388.6
			c0-9.6,7.9-17.4,17.6-17.4s17.6,7.8,17.6,17.4v340c0,9.6-7.9,17.4-17.6,17.4s-17.6-7.8-17.6-17.4V388.6z M381.8,378
			c3.1-3.5,7.4-5.6,12.2-5.9c9.3,0,18,6.7,18.6,16.3l21.3,339.6c0.3,4.7-1.3,9.2-4.4,12.6c-3.1,3.5-7.4,5.6-12.1,5.9h-0.1
			c-10.3,0-17.9-7.2-18.5-16.3l-21.3-339.6C377.2,386,378.7,381.5,381.8,378z"/>
	</g>
</g>
</svg>
